<?xml  version="1.0" encoding="UTF-8"?>
<!DOCTYPE svg PUBLIC "-//W3C//DTD SVG 1.0//EN" "http://www.w3.org/TR/2001/REC-SVG-20010904/DTD/svg10.dtd" >
<svg xmlns="http://www.w3.org/2000/svg" >
<metadata>
<version>1.0</version>
<id><![CDATA[Proxima N W01 Cd Thin]]></id>
<vendor>Monotype Imaging Inc.</vendor>
<credits>
<name>Fonts.com WebFonts</name>
<URL>http://webfonts.fonts.com</URL>
<role>Home of the Web fonts</role>
</credits>
<license>
<URL>http://webfonts.fonts.com/Legal</URL>
</license>
<copyright><![CDATA[Copyright (c) Mark Simonson, 2005. All rights reserved.]]></copyright>
<trademark><![CDATA[Proxima Nova is a trademark of Mark Simonson.]]></trademark>
<licensee>
<name></name>
</licensee>
</metadata>
<defs >
<font horiz-adv-x="401" id="2a3b5f0c-6d02-4a8f-a138-6146f0274068">
<font-face font-family="" panose-1="2 0 5 6 3 0 0 2 0 4" ascent="741" descent="-259" units-per-em="1000" alphabetic="0">
</font-face>
<missing-glyph horiz-adv-x="0" />

<glyph unicode="&#xA;" />
<glyph unicode="&#xD;" horiz-adv-x="0" />
<glyph unicode=" " horiz-adv-x="220" />
<glyph unicode="!" horiz-adv-x="208" d="M94 161L83 667H125L114 161H94ZM104 -9Q90 -9 81 0T71 24Q71 37 80 46T104 56Q118 56 127 47T137 24Q137 10 128 1T104 -9Z"  />
<glyph unicode="&quot;" horiz-adv-x="290" d="M77 443Q73 498 69 543Q67 562 66 580T64 614T63 639T62 651Q62 662 69 669T88 677Q99 677 106 670T114 651Q114 649 114 639T112 614T109 581T106 543Q102 498 99 443H77ZM191 443Q187 498 183 543Q181 562 180 580T178 614T177 639T176 651Q176 662 183 669T202 677Q213 677 220 670T228 651Q228 649 228 639T226 614T223 581T220 543Q216 498 213 443H191Z"  />
<glyph unicode="#" horiz-adv-x="481" d="M196 0L252 191H150L96 0H63L118 191H22L30 220H126L191 447H94L100 476H199L252 667H285L232 476H332L386 667H418L364 476H459L453 447H356L291 220H390L383 191H283L229 0H196ZM324 447H223L159 220H258L324 447Z"  />
<glyph unicode="$" horiz-adv-x="440" d="M213 -12Q157 -11 113 11T40 70L65 94Q88 63 126 41T213 18V337Q184 352 157 368T108 405T73 453T60 520Q60 555 72 583T106 631T154 663T213 677V768H245V677Q332 671 383 611L361 587Q338 615 309 629T245 647V358Q273 343 300 325T349 284T384 231T397 158Q397 129 389 101T362 50T314 10T245 -10V-100H213V-12ZM364 158Q364 190 355 214T329 258T291 292T245 320V20Q276 24 299 37T336 69T357 111T364 158ZM93 520Q93 492 102 471T128 433T167 402T213 375V647Q188 645 166 635T128 609T103 570T93 520Z"  />
<glyph unicode="%" horiz-adv-x="632" d="M169 351Q139 351 115 363T73 397T46 448T36 513Q36 548 45 578T72 630T114 664T169 677Q199 677 223 665T265 630T292 578T302 513Q302 478 293 449T266 397T224 363T169 351ZM127 0L475 667H510L161 0H127ZM463 -12Q433 -12 409 0T367 34T340 85T330 150Q330 185 339 215T366 267T408 301T463 314Q493 314 517 302T559 267T586 215T596 150Q596 115 587 86T560 34T518 0T463 -12ZM169 378Q192 378 210 389T242 418T262 461T269 513Q269 541 262 565T242 609T211 639T169 650Q146 650 128 639T96 609T76 566T69 513Q69 486 76 462T96 419T127 389T169 378ZM463 15Q486 15 504 26T536 55T556 98T563 150Q563 178 556 202T536 246T505 276T463 287Q440 287 422 276T390 246T370 203T363 150Q363 123 370 99T390 56T421 26T463 15Z"  />
<glyph unicode="&amp;" horiz-adv-x="498" d="M422 0Q407 18 389 40T353 86Q325 43 288 16T199 -12Q167 -12 140 -1T92 33T59 87T47 160Q47 199 57 230T83 285T121 330T165 368Q144 410 131 449T118 522Q118 592 150 634T235 677Q280 677 308 646T337 557Q337 521 326 493T296 443T253 401T205 362Q222 329 240 300T274 248Q294 217 312 193T347 145Q370 191 384 237T406 313L437 302Q425 256 409 208T370 116Q391 90 414 63T468 0H422ZM198 18Q240 18 273 45T331 114Q306 146 285 176T250 226Q231 254 213 283T179 341Q140 309 111 267T82 160Q82 124 91 98T117 53T154 27T198 18ZM153 522Q153 492 163 458T191 389Q213 406 233 423T269 460T294 503T304 557Q304 604 284 625T235 647Q199 647 176 616T153 522Z"  />
<glyph unicode="&apos;" horiz-adv-x="176" d="M77 443Q73 498 69 543Q67 562 66 580T64 614T63 639T62 651Q62 662 69 669T88 677Q99 677 106 670T114 651Q114 649 114 639T112 614T109 581T106 543Q102 498 99 443H77Z"  />
<glyph unicode="(" horiz-adv-x="187" d="M153 -199Q100 -96 74 13T47 243Q47 364 73 473T153 685L170 677Q150 628 134 580T107 479T89 369T82 243Q82 175 88 118T106 8T134 -92T170 -190L153 -199Z"  />
<glyph unicode=")" horiz-adv-x="187" d="M17 -190Q36 -141 52 -93T80 8T98 117T105 243Q105 311 99 369T81 479T53 579T17 677L34 685Q87 582 113 473T140 243Q140 122 114 13T34 -199L17 -190Z"  />
<glyph unicode="*" horiz-adv-x="309" d="M140 409L146 528L46 463L31 489L137 543L31 597L46 623L146 558L140 677H170L164 558L264 623L279 597L173 543L279 489L264 463L164 528L170 409H140Z"  />
<glyph unicode="+" horiz-adv-x="434" d="M233 322V130H201V322H29V352H201V538H233V352H405V322H233Z"  />
<glyph unicode="&#x2c;" horiz-adv-x="208" d="M142 3Q142 -35 123 -68T80 -118L58 -100Q82 -82 96 -57T111 -8Q110 -9 108 -9H103Q89 -9 80 0T71 24Q71 37 80 46T103 56Q119 56 130 43T142 3Z"  />
<glyph unicode="-" horiz-adv-x="265" d="M30 227V257H235V227H30Z"  />
<glyph unicode="." horiz-adv-x="208" d="M104 -9Q90 -9 81 0T71 24Q71 37 80 46T104 56Q118 56 127 47T137 24Q137 10 128 1T104 -9Z"  />
<glyph unicode="/" horiz-adv-x="223" d="M0 -20L192 687H223L31 -20H0Z"  />
<glyph unicode="0" horiz-adv-x="491" d="M246 -12Q191 -12 155 21T98 104T68 216T59 333Q59 390 67 450T97 561T155 644T246 677Q301 677 337 645T394 562T423 451T432 333Q432 296 429 256T417 177T395 105T360 44T311 3T246 -12ZM246 18Q292 18 321 48T368 125T391 227T397 333Q397 383 391 438T368 540T322 617T246 647Q199 647 170 617T124 541T101 439T94 333Q94 283 100 228T123 126T169 49T246 18Z"  />
<glyph unicode="1" horiz-adv-x="260" d="M148 0V621L43 506L21 529L150 667H180V0H148Z"  />
<glyph unicode="2" horiz-adv-x="463" d="M60 0V28Q133 126 188 197T280 324T335 424T353 513Q353 546 343 571T315 613T275 638T229 647Q180 647 145 623T89 556L61 573Q87 622 128 649T229 677Q259 677 287 667T338 636T373 584T387 513Q387 468 369 422T314 320T224 194T100 30H388V0H60Z"  />
<glyph unicode="3" horiz-adv-x="439" d="M208 -12Q176 -12 150 -3T101 22T63 58T36 102L66 116Q86 74 120 46T208 18Q277 18 311 60T346 178Q346 221 334 250T301 297T254 322T201 330Q187 330 175 330T156 329V361Q163 360 175 360T201 360Q228 360 253 368T297 394T327 438T338 501Q338 575 301 611T209 647Q160 647 129 623T72 557L44 574Q69 620 112 648T209 677Q242 677 271 667T323 635T359 580T372 503Q372 470 362 444T336 397T300 364T259 345Q278 342 299 330T339 296T368 245T380 177Q380 137 370 103T338 43T284 3T208 -12Z"  />
<glyph unicode="4" horiz-adv-x="417" d="M282 0V195H25V228L272 667H314V225H392V195H314V0H282ZM282 624L58 225H282V624Z"  />
<glyph unicode="5" horiz-adv-x="461" d="M236 -12Q201 -12 175 -4T128 20T92 56T64 102L93 117Q116 69 149 44T236 18Q266 18 291 32T334 72T361 129T371 198Q371 289 335 334T240 380Q203 380 173 365T110 311L83 327V667H372V637H115V350Q135 375 166 392T240 410Q274 410 304 397T356 357T392 290T405 198Q405 154 392 116T356 49T303 4T236 -12Z"  />
<glyph unicode="6" horiz-adv-x="464" d="M241 -12Q187 -12 152 18T96 96T67 207T59 333Q59 394 67 455T97 565T155 646T249 677Q302 677 336 652T392 584L366 566Q348 603 322 625T249 647Q201 647 171 617T124 539T100 434T93 323V296Q101 314 115 333T149 369T193 395T245 406Q280 406 310 393T363 354T397 289T410 196Q410 159 400 122T370 55T317 7T241 -12ZM241 18Q277 18 302 34T344 75T368 132T376 196Q376 245 366 279T339 334T297 366T244 376Q219 376 197 365T155 336T121 295T96 246Q98 214 105 174T128 100T172 42T241 18Z"  />
<glyph unicode="7" horiz-adv-x="384" d="M101 0L318 637H30V667H354V645L135 0H101Z"  />
<glyph unicode="8" horiz-adv-x="455" d="M228 -12Q189 -12 158 0T104 35T69 89T57 160Q57 195 69 225T102 278T146 318T194 344Q172 352 150 367T109 403T78 451T66 511Q66 553 79 584T115 635T167 666T228 677Q259 677 288 667T340 636T375 584T389 511Q389 478 377 451T347 403T306 367T262 344Q285 335 309 319T353 279T385 225T398 160Q398 122 386 90T352 36T298 1T228 -12ZM228 359Q238 362 259 371T301 399T339 444T356 511Q356 574 321 610T228 647Q171 647 136 611T100 511Q100 472 116 445T154 399T197 372T228 359ZM228 18Q255 18 280 27T323 55T353 99T364 160Q364 202 347 233T307 285T261 317T228 330Q217 328 195 317T149 285T109 233T91 160Q91 126 102 100T131 55T175 28T228 18Z"  />
<glyph unicode="9" horiz-adv-x="464" d="M215 -11Q162 -11 128 14T72 82L98 100Q116 64 142 42T215 19Q263 19 293 49T340 127T364 232T371 343V371Q363 353 349 333T315 297T271 271T219 260Q184 260 154 273T101 312T67 377T54 470Q54 507 64 544T94 611T147 659T223 678Q277 678 312 648T368 570T397 459T405 333Q405 273 397 212T367 101T309 20T215 -11ZM220 290Q245 290 267 301T309 330T343 371T368 420Q366 452 359 492T336 566T292 624T223 648Q187 648 162 632T120 591T96 534T88 470Q88 421 98 387T125 332T167 300T220 290Z"  />
<glyph unicode=":" horiz-adv-x="208" d="M104 425Q90 425 81 434T71 457Q71 471 80 480T104 490Q118 490 127 481T137 457Q137 444 128 435T104 425ZM104 -9Q90 -9 81 0T71 24Q71 37 80 46T104 56Q118 56 127 47T137 24Q137 10 128 1T104 -9Z"  />
<glyph unicode=";" horiz-adv-x="208" d="M104 425Q90 425 81 434T71 457Q71 471 80 480T104 490Q118 490 127 481T137 457Q137 444 128 435T104 425ZM142 3Q142 -35 123 -68T80 -118L58 -100Q82 -82 96 -57T111 -8Q110 -9 108 -9H103Q89 -9 80 0T71 24Q71 37 80 46T103 56Q119 56 130 43T142 3Z"  />
<glyph unicode="&lt;" horiz-adv-x="434" d="M29 324V345L405 542V506L70 334L405 164V128L29 324Z"  />
<glyph unicode="=" horiz-adv-x="434" d="M29 418V448H405V418H29ZM29 220V250H405V220H29Z"  />
<glyph unicode="&gt;" horiz-adv-x="434" d="M29 128V164L364 334L29 506V542L405 345V324L29 128Z"  />
<glyph unicode="?" horiz-adv-x="385" d="M187 169Q167 187 159 206T151 247Q151 280 163 304T193 348T233 387T272 426T303 472T315 532Q315 554 307 574T284 611T245 638T193 648Q144 648 114 631T58 581L37 604Q63 639 102 658T193 678Q228 678 256 666T305 634T337 588T348 532Q348 494 336 467T305 417T265 376T225 338T195 297T182 247Q182 232 189 217T210 190L187 169ZM189 -9Q175 -9 166 0T156 24Q156 37 165 46T189 56Q203 56 212 47T222 24Q222 10 213 1T189 -9Z"  />
<glyph unicode="@" horiz-adv-x="676" d="M304 -70Q246 -70 197 -48T112 13T56 108T35 230Q35 311 64 385T142 515T255 605T390 639Q446 639 492 618T572 559T623 469T641 352Q641 290 629 241T596 157T551 104T499 85Q463 85 444 109T424 165V171Q413 155 399 140T367 112T329 93T287 85Q262 85 241 93T203 119T177 162T167 224Q167 276 184 326T229 414T296 476T377 500Q418 500 443 476T478 418L491 482H521L458 186Q457 181 457 176T456 166Q456 137 467 125T498 112Q511 112 530 125T568 168T599 242T612 352Q612 411 596 458T550 539T479 591T389 609Q324 609 266 577T163 492T93 371T67 231Q67 170 85 120T135 34T212 -21T308 -41Q356 -41 394 -26T466 16L481 -7Q442 -37 397 -53T304 -70ZM287 112Q312 112 333 121T373 145T406 178T433 215L470 385Q466 400 459 415T441 444T414 465T377 473Q338 473 306 450T250 390T213 310T200 224Q200 173 222 143T287 112Z"  />
<glyph unicode="A" horiz-adv-x="474" d="M423 0L370 179H105L52 0H17L218 667H256L458 0H423ZM237 625L113 209H361L237 625Z"  />
<glyph unicode="B" horiz-adv-x="480" d="M80 0V667H254Q323 667 366 624T410 497Q410 434 382 396T312 344Q335 340 355 325T389 288T412 237T421 180Q421 94 379 47T258 0H80ZM254 358Q286 358 309 369T346 398T368 442T375 497Q375 525 368 550T347 595T309 626T254 637H112V358H254ZM258 30Q323 30 354 70T386 179Q386 207 379 234T356 282T316 315T258 328H112V30H258Z"  />
<glyph unicode="C" horiz-adv-x="512" d="M298 -12Q243 -12 199 14T124 86T76 196T59 333Q59 407 76 470T124 580T199 652T298 678Q358 678 400 649T471 574L443 557Q419 599 383 623T298 648Q252 648 215 625T150 559T109 459T94 333Q94 265 108 208T150 108T214 42T298 18Q349 18 385 46T445 119L473 103Q443 50 401 19T298 -12Z"  />
<glyph unicode="D" horiz-adv-x="535" d="M80 0V667H226Q287 667 334 641T412 570T460 464T476 333Q476 262 460 202T413 96T334 26T226 0H80ZM226 30Q280 30 320 53T387 118T427 214T441 333Q441 396 428 451T388 547T321 613T226 637H112V30H226Z"  />
<glyph unicode="E" horiz-adv-x="444" d="M80 0V667H389V637H112V358H382V328H112V30H389V0H80Z"  />
<glyph unicode="F" horiz-adv-x="432" d="M80 0V667H389V637H112V358H382V328H112V0H80Z"  />
<glyph unicode="G" horiz-adv-x="542" d="M298 -13Q244 -13 200 12T125 83T76 192T59 333Q59 410 76 473T124 582T200 653T298 678Q361 678 403 650T477 575L451 558Q425 600 387 624T298 648Q251 648 214 624T150 558T109 458T94 333Q94 266 108 209T149 109T213 42T298 18Q349 18 386 39T445 88V290H257V320H477V78Q445 35 399 11T298 -13Z"  />
<glyph unicode="H" horiz-adv-x="545" d="M433 0V328H112V0H80V667H112V358H433V667H465V0H433Z"  />
<glyph unicode="I" horiz-adv-x="192" d="M80 0V667H112V0H80Z"  />
<glyph unicode="J" horiz-adv-x="382" d="M147 -12Q104 -12 72 4T11 59L37 82Q57 53 84 36T147 18Q205 18 237 53T270 153V667H302V153Q302 111 290 80T257 28T208 -2T147 -12Z"  />
<glyph unicode="K" horiz-adv-x="472" d="M406 0L176 324L112 236V0H80V667H112V285L385 667H426L194 348L447 0H406Z"  />
<glyph unicode="L" horiz-adv-x="403" d="M80 0V667H112V30H369V0H80Z"  />
<glyph unicode="M" horiz-adv-x="639" d="M527 0V619L327 0H313L112 619V0H80V667H132L320 90L508 667H559V0H527Z"  />
<glyph unicode="N" horiz-adv-x="543" d="M431 0L112 595V0H80V667H112L431 78V667H463V0H431Z"  />
<glyph unicode="O" horiz-adv-x="580" d="M290 -12Q233 -12 190 15T118 90T74 199T59 333Q59 404 73 466T117 576T190 650T290 678Q347 678 390 651T462 576T506 467T521 333Q521 262 507 200T463 90T390 16T290 -12ZM290 18Q338 18 374 43T435 110T473 210T486 333Q486 399 473 456T436 556T375 623T290 648Q242 648 206 624T145 556T107 456T94 333Q94 268 107 211T144 111T205 43T290 18Z"  />
<glyph unicode="P" horiz-adv-x="448" d="M80 0V667H246Q287 667 318 652T369 611T400 551T411 478Q411 440 401 406T369 345T317 304T246 289H112V0H80ZM245 319Q308 319 342 364T376 478Q376 547 342 592T245 637H112V319H245Z"  />
<glyph unicode="Q" horiz-adv-x="580" d="M290 -12Q233 -12 190 15T118 90T74 199T59 333Q59 404 73 466T117 576T190 650T290 678Q347 678 390 651T462 576T506 467T521 333Q521 248 501 177T439 57L485 -12L460 -29L417 35Q391 12 360 0T290 -12ZM290 18Q322 18 349 29T398 62L310 194L336 212L419 86Q452 130 469 194T486 333Q486 399 473 456T436 556T375 623T290 648Q242 648 206 624T145 556T107 456T94 333Q94 268 107 211T144 111T205 43T290 18Z"  />
<glyph unicode="R" horiz-adv-x="473" d="M380 0L229 289H112V0H80V667H245Q280 667 310 655T363 618T398 559T411 478Q411 432 399 398T366 341T319 306T264 291L419 0H380ZM245 319Q308 319 342 364T376 478Q376 547 342 592T245 637H112V319H245Z"  />
<glyph unicode="S" horiz-adv-x="447" d="M216 -12Q159 -12 114 10T40 70L65 94Q88 63 127 41T216 18Q255 18 283 30T329 61T355 106T364 158Q364 208 342 240T285 295T212 337T139 379T83 436T60 520Q60 557 73 586T110 636T164 667T227 678Q278 678 317 661T383 611L361 587Q335 619 302 633T227 648Q200 648 176 639T133 613T104 573T93 520Q93 477 115 449T172 400T245 359T318 313T374 251T397 158Q397 127 387 97T355 42T299 3T216 -12Z"  />
<glyph unicode="T" horiz-adv-x="423" d="M195 0V637H28V667H395V637H227V0H195Z"  />
<glyph unicode="U" horiz-adv-x="534" d="M267 -12Q176 -12 128 43T80 204V667H112V204Q112 110 152 64T267 18Q341 18 381 64T422 204V667H454V204Q454 98 406 43T267 -12Z"  />
<glyph unicode="V" horiz-adv-x="474" d="M218 0L17 667H52L237 42L423 667H458L256 0H218Z"  />
<glyph unicode="W" horiz-adv-x="671" d="M464 0L336 597L208 0H170L25 667H60L189 56L319 667H353L483 56L612 667H647L502 0H464Z"  />
<glyph unicode="X" horiz-adv-x="473" d="M418 0L237 310L56 0H17L219 340L28 667H68L237 372L406 667H446L255 341L457 0H418Z"  />
<glyph unicode="Y" horiz-adv-x="466" d="M217 0V289L12 667H50L233 325L417 667H455L249 289V0H217Z"  />
<glyph unicode="Z" horiz-adv-x="444" d="M45 0V31L357 637H45V667H392V637L79 30H399V0H45Z"  />
<glyph unicode="[" horiz-adv-x="187" d="M34 -190V678H170V648H64V-160H170V-190H34Z"  />
<glyph unicode="\" horiz-adv-x="223" d="M1 687H31L223 -20H193L1 687Z"  />
<glyph unicode="]" horiz-adv-x="187" d="M17 -190V-160H123V648H17V678H153V-190H17Z"  />
<glyph unicode="^" horiz-adv-x="374" d="M322 333L187 638L52 333H19L174 667H200L355 333H322Z"  />
<glyph unicode="_" horiz-adv-x="422" d="M-3 -70V-40H425V-70H-3Z"  />
<glyph unicode="`" horiz-adv-x="162" d="M135 556L0 700H43L162 556H135Z"  />
<glyph unicode="a" horiz-adv-x="428" d="M323 0V56Q297 19 265 4T195 -12Q165 -12 139 -1T94 32T63 82T52 149Q52 186 63 215T93 266T139 298T195 310Q232 310 264 295T323 243V348Q323 407 295 437T216 468Q180 468 151 454T92 403L72 425Q104 461 137 478T216 495Q282 495 317 459T353 349V0H323ZM199 15Q236 15 269 32T323 89V209Q302 248 269 265T199 283Q172 283 151 272T115 243T93 201T85 149Q85 122 92 98T114 55T150 26T199 15Z"  />
<glyph unicode="b" horiz-adv-x="459" d="M106 113Q114 94 127 76T158 45T195 23T237 15Q272 15 297 33T339 83T364 155T372 241Q372 287 364 328T340 400T298 449T237 468Q216 468 196 460T158 437T128 405T106 368V113ZM76 0V667H106V406Q128 449 163 472T237 495Q278 495 309 476T362 423T394 343T405 241Q405 186 394 140T362 60T310 7T237 -12Q196 -12 161 13T106 76V0H76Z"  />
<glyph unicode="c" horiz-adv-x="394" d="M236 -12Q192 -12 158 8T101 62T66 143T54 242Q54 294 66 340T101 420T158 475T236 495Q281 495 308 478T360 432L339 413Q316 443 291 455T236 468Q198 468 170 450T124 400T96 328T87 242Q87 198 96 157T123 85T170 34T236 15Q266 15 291 27T339 71L360 51Q336 20 309 4T236 -12Z"  />
<glyph unicode="d" horiz-adv-x="459" d="M353 0V76Q333 38 298 13T222 -12Q181 -12 150 7T97 59T65 139T54 241Q54 296 65 342T97 423T149 476T222 495Q261 495 296 472T353 406V667H383V0H353ZM222 15Q243 15 263 23T301 44T331 76T353 113V368Q345 387 332 405T301 437T264 459T222 468Q187 468 162 450T120 400T95 328T87 241Q87 196 95 155T119 83T161 34T222 15Z"  />
<glyph unicode="e" horiz-adv-x="459" d="M245 -12Q199 -12 164 7T104 61T67 141T54 242Q54 294 66 340T101 421T157 475T232 495Q278 495 311 475T366 419T398 338T408 242V232H87Q88 185 99 146T130 77T179 32T245 15Q318 15 369 86L392 69Q364 32 329 10T245 -12ZM376 259Q376 294 368 331T343 398T298 448T231 468Q193 468 167 448T123 397T97 329T87 259H376Z"  />
<glyph unicode="f" horiz-adv-x="224" d="M89 0V456H24V483H89V562Q89 616 115 646T189 677Q209 677 225 672T258 649L239 625Q218 650 189 650Q154 650 137 627T119 562V483H203V456H119V0H89Z"  />
<glyph unicode="g" horiz-adv-x="459" d="M220 -196Q175 -196 141 -184T73 -136L94 -111Q140 -169 220 -169Q278 -169 315 -135T353 -23V76Q333 38 298 12T222 -14Q181 -14 150 5T97 58T65 138T54 240Q54 295 65 342T97 423T149 476T222 495Q261 495 296 472T353 406V483H383V-23Q383 -69 371 -102T338 -156T286 -186T220 -196ZM222 13Q243 13 263 21T301 44T331 76T353 113V368Q345 387 332 405T301 437T264 459T222 468Q187 468 162 450T120 400T95 327T87 240Q87 195 95 154T119 81T161 32T222 13Z"  />
<glyph unicode="h" horiz-adv-x="435" d="M330 0V367Q330 424 306 446T241 468Q199 468 163 440T106 376V0H76V667H106V409Q128 443 165 469T245 495Q302 495 331 466T360 367V0H330Z"  />
<glyph unicode="i" horiz-adv-x="181" d="M91 566Q80 566 71 574T62 595Q62 607 71 615T91 624Q103 624 111 616T120 595Q120 583 112 575T91 566ZM76 0V483H106V0H76Z"  />
<glyph unicode="j" horiz-adv-x="181" d="M91 566Q80 566 71 574T62 595Q62 607 71 615T91 624Q103 624 111 616T120 595Q120 583 112 575T91 566ZM14 -196Q-33 -196 -61 -158L-38 -139Q-30 -151 -17 -160T14 -169Q40 -169 58 -152T76 -86V483H106V-86Q106 -148 81 -172T14 -196Z"  />
<glyph unicode="k" horiz-adv-x="411" d="M349 0L189 243L106 142V0H76V667H106V184L353 483H390L208 265L386 0H349Z"  />
<glyph unicode="l" horiz-adv-x="181" d="M76 0V667H106V0H76Z"  />
<glyph unicode="m" horiz-adv-x="647" d="M542 0V371Q542 468 463 468Q445 468 427 461T392 441T362 411T339 376V0H309V371Q309 468 230 468Q212 468 194 461T160 440T129 411T106 376V0H76V483H106V409Q114 424 127 439T157 466T194 487T235 495Q283 495 307 470T336 407Q355 442 390 468T468 495Q520 495 546 465T572 371V0H542Z"  />
<glyph unicode="n" horiz-adv-x="435" d="M330 0V366Q330 423 306 445T241 468Q199 468 163 440T106 376V0H76V483H106V409Q128 443 165 469T245 495Q302 495 331 465T360 366V0H330Z"  />
<glyph unicode="o" horiz-adv-x="461" d="M231 -12Q187 -12 154 8T99 63T65 144T54 242Q54 293 65 339T98 419T154 474T231 495Q275 495 308 475T363 420T397 339T408 242Q408 191 397 145T364 64T308 9T231 -12ZM231 15Q269 15 296 34T340 86T366 159T375 242Q375 284 367 324T341 397T296 448T231 468Q193 468 166 449T122 397T96 325T87 242Q87 200 95 159T121 86T166 35T231 15Z"  />
<glyph unicode="p" horiz-adv-x="457" d="M237 -12Q198 -12 163 11T106 78V-184H76V483H106V408Q126 446 161 470T237 495Q278 495 309 477T362 424T394 344T405 242Q405 187 394 141T362 60T310 7T237 -12ZM237 15Q272 15 297 33T339 83T364 155T372 242Q372 288 364 329T340 401T298 450T237 468Q216 468 196 460T158 439T128 407T106 370V115Q114 96 127 78T158 46T195 24T237 15Z"  />
<glyph unicode="q" horiz-adv-x="457" d="M220 15Q241 15 261 23T299 46T329 78T351 115V370Q343 389 330 407T299 438T262 460T220 468Q185 468 160 450T118 401T93 329T85 242Q85 197 93 156T117 83T159 34T220 15ZM220 -12Q179 -12 148 7T95 60T63 140T52 242Q52 297 63 343T95 424T147 476T220 495Q261 495 296 471T351 408V483H381V-184H351V78Q329 35 294 12T220 -12Z"  />
<glyph unicode="r" horiz-adv-x="266" d="M76 0V483H106V397Q132 440 165 466T246 492V456Q241 457 237 457T227 457Q208 457 190 449T155 427T126 396T106 362V0H76Z"  />
<glyph unicode="s" horiz-adv-x="366" d="M179 -12Q134 -12 100 3T36 56L59 78Q79 50 108 33T179 15Q228 15 259 43T290 116Q290 151 272 173T227 211T169 240T111 271T66 314T48 379Q48 429 85 462T183 495Q228 495 260 478T312 433L291 413Q273 441 246 454T183 468Q134 468 106 443T78 379Q78 346 96 326T141 290T199 262T257 230T302 185T320 116Q320 61 283 25T179 -12Z"  />
<glyph unicode="t" horiz-adv-x="234" d="M158 -12Q120 -12 103 12T85 81V456H19V483H85V615H115V483H199V456H115V81Q115 50 125 33T158 15Q173 15 185 21T205 39L224 18Q211 4 197 -4T158 -12Z"  />
<glyph unicode="u" horiz-adv-x="435" d="M330 0V72Q306 37 270 13T191 -12Q134 -12 105 17T76 117V483H106V117Q106 60 129 38T195 15Q236 15 273 42T330 105V483H360V0H330Z"  />
<glyph unicode="v" horiz-adv-x="375" d="M170 0L14 483H48L188 35L328 483H362L205 0H170Z"  />
<glyph unicode="w" horiz-adv-x="594" d="M416 0L297 439L178 0H151L21 483H54L165 47L282 483H312L429 47L540 483H573L443 0H416Z"  />
<glyph unicode="x" horiz-adv-x="379" d="M322 0L190 223L57 0H21L173 247L30 483H66L190 272L314 483H350L207 247L358 0H322Z"  />
<glyph unicode="y" horiz-adv-x="375" d="M45 -162Q52 -166 62 -167T78 -169Q100 -169 113 -157T138 -109L172 -11L14 483H48L188 38L328 483H362L165 -119Q139 -196 78 -196Q55 -196 39 -189L45 -162Z"  />
<glyph unicode="z" horiz-adv-x="371" d="M51 0V27L283 456H51V483H316V456L84 27H320V0H51Z"  />
<glyph unicode="{" horiz-adv-x="212" d="M148 -190Q131 -190 116 -183T87 -163T67 -130T59 -87V157Q59 185 46 207T7 229V259Q33 259 46 281T59 331V575Q59 599 66 618T87 650T115 671T148 678H195V648H148Q124 648 107 628T89 575V331Q89 299 79 277T44 244Q69 233 79 211T89 157V-87Q89 -119 106 -139T148 -160H195V-190H148Z"  />
<glyph unicode="|" horiz-adv-x="190" d="M80 -20V687H110V-20H80Z"  />
<glyph unicode="}" horiz-adv-x="212" d="M17 -160H64Q88 -160 105 -140T123 -87V157Q123 189 133 211T168 244Q143 255 133 277T123 331V575Q123 607 106 627T64 648H17V678H64Q80 678 96 671T125 651T145 618T153 575V331Q153 303 166 281T205 259V229Q179 229 166 207T153 157V-87Q153 -111 146 -130T125 -162T96 -183T64 -190H17V-160Z"  />
<glyph unicode="~" horiz-adv-x="436" d="M408 664Q405 623 399 582T380 507T347 454T295 433Q268 433 252 448T226 485T208 534T193 582T173 620T142 635Q104 635 86 583T58 431L28 436Q32 477 38 518T58 591T91 644T142 665Q169 665 185 650T211 613T229 564T244 515T264 477T295 462Q333 462 350 513T378 667L408 664Z"  />
<glyph unicode="&#xA0;" horiz-adv-x="220" />
<glyph unicode="&#xA1;" horiz-adv-x="208" d="M94 322H114L125 -184H83L94 322ZM71 459Q71 473 80 482T104 492Q118 492 127 483T137 459Q137 446 128 437T104 427Q90 427 81 436T71 459Z"  />
<glyph unicode="&#xA2;" horiz-adv-x="394" d="M214 -10Q175 -5 146 16T96 72T65 149T54 242Q54 291 64 334T95 411T145 466T214 493V565H244V495Q285 493 311 477T360 432L339 413Q318 441 295 453T244 468V15Q271 17 294 29T339 71L360 51Q337 22 311 6T244 -12V-100H214V-10ZM87 242Q87 201 94 163T118 94T158 43T214 17V466Q182 460 158 440T118 390T95 321T87 242Z"  />
<glyph unicode="&#xA3;" horiz-adv-x="417" d="M24 297H138Q125 316 110 335T81 377T60 427T51 492Q51 527 62 560T95 620T148 661T220 677Q271 677 309 649T365 576L339 559Q326 592 297 619T220 647Q194 647 170 637T126 607T96 558T84 491Q84 455 93 428T115 379T144 338T173 297H288V267H189Q194 253 197 238T201 203Q201 153 178 114T121 49Q144 59 168 59Q189 59 205 53T237 38T267 24T300 17Q327 17 350 30T384 58L403 32Q387 13 359 0T298 -13Q270 -13 254 -6T224 9T197 24T158 31Q138 31 114 21T62 -7L46 24Q108 56 139 104T170 203Q170 222 166 237T155 267H24V297Z"  />
<glyph unicode="&#xA4;" horiz-adv-x="463" d="M231 99Q193 99 163 113T111 153L35 77L14 98L93 177Q73 209 64 248T54 333Q54 378 64 418T94 490L13 571L35 592L112 514Q134 539 163 553T231 567Q269 567 298 553T350 514L427 592L449 570L368 490Q388 458 398 418T408 333Q408 241 368 176L449 96L427 74L350 151Q328 127 299 113T231 99ZM231 131Q269 131 296 148T340 194T366 259T375 333Q375 370 367 406T341 471T296 516T231 534Q193 534 166 517T122 471T96 407T87 333Q87 295 95 259T121 195T166 149T231 131Z"  />
<glyph unicode="&#xA5;" horiz-adv-x="466" d="M217 0V129H20V159H217V289H20V319H200L12 667H50L233 325L417 667H455L265 319H446V289H249V159H446V129H249V0H217Z"  />
<glyph unicode="&#xA6;" horiz-adv-x="190" d="M80 -20V296H110V-20H80ZM80 371V687H110V371H80Z"  />
<glyph unicode="&#xA7;" horiz-adv-x="366" d="M320 297Q320 259 300 227T234 178Q276 152 298 122T320 47Q320 -10 281 -45T179 -81Q125 -81 94 -63T36 -13L59 9Q75 -14 104 -34T179 -54Q227 -54 258 -26T290 47Q290 82 272 104T227 142T169 171T111 202T66 245T48 310Q48 353 77 385T157 427Q103 455 76 485T48 561Q48 611 84 644T180 677Q226 677 258 660T312 615L290 595Q267 627 240 638T180 650Q136 650 107 625T78 560Q78 527 96 507T141 471T199 443T257 412T302 366T320 297ZM290 298Q290 324 281 342T256 374T224 395T190 411Q157 404 135 393T101 369T83 340T78 309Q78 287 87 271T114 242T154 217T206 192Q290 230 290 298Z"  />
<glyph unicode="&#xA8;" horiz-adv-x="252" d="M235 598Q235 587 227 579T207 570Q196 570 188 578T179 598Q179 609 187 617T207 626Q218 626 226 618T235 598ZM73 598Q73 587 65 579T45 570Q34 570 26 578T17 598Q17 609 25 617T45 626Q56 626 64 618T73 598Z"  />
<glyph unicode="&#xA9;" horiz-adv-x="778" d="M734 334Q734 263 707 200T633 90T524 16T389 -11Q318 -11 255 16T145 90T71 200T44 334Q44 406 71 468T145 578T255 652T389 679Q461 679 523 652T633 578T707 469T734 334ZM708 334Q708 400 683 458T615 559T513 628T389 653Q323 653 265 628T164 560T95 458T70 334Q70 268 95 210T163 109T265 40T389 15Q455 15 513 40T614 108T683 210T708 334ZM533 184Q506 152 472 136T390 119Q346 119 308 135T242 181T198 250T181 335Q181 381 197 420T242 488T308 533T390 550Q437 550 472 534T533 486L513 466Q493 492 459 507T390 523Q355 523 323 510T265 473T225 413T210 335Q210 294 225 259T265 199T322 160T390 146Q426 146 459 162T513 204L533 184Z"  />
<glyph unicode="&#xAA;" horiz-adv-x="317" d="M229 326V362Q211 339 189 329T140 318Q98 318 70 346T42 423Q42 472 70 499T140 527Q166 527 188 517T229 484V549Q229 587 208 604T156 622Q136 622 114 614T72 579L55 600Q77 624 101 636T158 648Q256 648 256 542V326H229ZM146 340Q171 340 193 351T229 386V459Q215 483 193 494T146 505Q111 505 91 481T71 423Q71 388 91 364T146 340Z"  />
<glyph unicode="&#xAB;" horiz-adv-x="319" d="M253 63L128 243L253 420H289L164 243L289 63H253ZM155 63L30 243L155 420H191L66 243L191 63H155Z"  />
<glyph unicode="&#xAC;" horiz-adv-x="434" d="M405 220H373V418H29V448H405V220Z"  />
<glyph unicode="&#xAD;" horiz-adv-x="265" d="M30 227V257H235V227H30Z"  />
<glyph unicode="&#xAE;" horiz-adv-x="494" d="M459 465Q459 421 443 383T398 315T330 270T247 253Q203 253 165 269T97 315T52 382T35 465Q35 509 51 548T97 615T164 660T247 677Q291 677 330 661T397 616T442 548T459 465ZM433 465Q433 504 419 538T379 597T320 636T247 651Q208 651 175 637T116 597T76 538T61 465Q61 427 75 393T115 334T174 294T247 279Q286 279 319 293T378 333T418 393T433 465ZM306 343L243 439H196V343H167V586H266Q297 586 318 566T340 512Q340 492 333 478T315 456T294 444T278 440L343 343H306ZM310 512Q310 532 296 545T266 559H196V467H266Q282 467 296 480T310 512Z"  />
<glyph unicode="&#xAF;" horiz-adv-x="302" d="M0 581V608H302V581H0Z"  />
<glyph unicode="&#xB0;" horiz-adv-x="273" d="M247 566Q247 543 238 523T214 488T179 465T136 456Q113 456 93 464T58 488T35 523T26 566Q26 589 34 609T58 644T93 668T136 677Q159 677 179 668T214 644T238 609T247 566ZM217 566Q217 599 193 623T136 647Q103 647 80 623T56 566Q56 533 79 510T136 486Q169 486 193 509T217 566Z"  />
<glyph unicode="&#xB1;" horiz-adv-x="434" d="M233 322V130H201V322H29V352H201V538H233V352H405V322H233ZM29 30V60H405V30H29Z"  />
<glyph unicode="&#xB2;" horiz-adv-x="310" d="M44 421V445Q91 498 127 538T187 610T224 669T237 723Q237 763 213 782T158 801Q127 801 104 787T67 748L45 765Q63 794 92 810T159 827Q179 827 198 821T233 802T257 770T267 723Q267 694 255 666T219 605T161 534T84 447H268V421H44Z"  />
<glyph unicode="&#xB3;" horiz-adv-x="310" d="M270 528Q270 479 241 447T154 414Q111 414 82 434T38 481L60 497Q74 472 97 456T153 440Q195 440 217 463T240 529Q240 553 232 569T211 596T182 610T148 615Q138 615 130 615T118 614V641Q122 640 129 640T147 640Q182 640 208 659T235 720Q235 761 212 781T153 801Q122 801 102 788T64 749L42 766Q59 793 88 810T154 827Q199 827 231 801T264 722Q264 701 257 685T240 658T216 639T190 628Q202 626 216 619T242 600T262 569T270 528Z"  />
<glyph unicode="&#xB4;" horiz-adv-x="162" d="M27 556H0L119 700H162L27 556Z"  />
<glyph unicode="&#xB5;" horiz-adv-x="446" d="M106 -184H76V483H106V117Q106 62 131 38T198 13Q218 13 237 20T274 41T305 70T330 105V483H360V81Q360 50 369 33T403 15Q410 15 420 17L423 -10Q413 -12 403 -12Q365 -12 349 10T330 72Q307 37 273 13T198 -12Q157 -12 137 1T106 34V-184Z"  />
<glyph unicode="&#xB6;" horiz-adv-x="449" d="M327 -100V637H229V-100H199V323Q163 323 132 336T78 373T41 428T27 495Q27 531 40 562T77 616T132 653T199 667H357V-100H327Z"  />
<glyph unicode="&#xB7;" horiz-adv-x="208" d="M137 245Q137 231 128 222T104 212Q90 212 81 221T71 245Q71 258 80 267T104 277Q118 277 127 268T137 245Z"  />
<glyph unicode="&#xB8;" horiz-adv-x="171" d="M82 -187Q56 -187 35 -179T0 -159L14 -133Q31 -148 47 -154T82 -160Q106 -160 124 -147T142 -111Q142 -92 133 -81T104 -70Q81 -70 67 -87L45 -74L76 11H106L80 -59Q87 -53 95 -51T113 -48Q138 -48 154 -65T171 -111Q171 -144 146 -165T82 -187Z"  />
<glyph unicode="&#xB9;" horiz-adv-x="191" d="M101 421V781L39 713L20 733L104 821H131V421H101Z"  />
<glyph unicode="&#xBA;" horiz-adv-x="339" d="M169 318Q139 318 116 331T76 367T52 420T43 483Q43 517 51 547T76 599T115 635T169 648Q200 648 223 635T263 600T287 547T296 483Q296 450 288 420T263 368T224 332T169 318ZM169 344Q194 344 212 355T243 386T260 431T266 483Q266 510 261 535T243 579T213 609T169 621Q145 621 127 610T97 579T79 535T73 483Q73 456 79 431T97 387T127 356T169 344Z"  />
<glyph unicode="&#xBB;" horiz-adv-x="319" d="M66 63H30L155 243L30 420H66L191 243L66 63ZM164 63H128L253 243L128 420H164L289 243L164 63Z"  />
<glyph unicode="&#xBC;" horiz-adv-x="615" d="M101 267V627L39 559L20 579L104 667H131V267H101ZM533 113V0H504V113H339V140L495 400H533V139H583V113H533ZM504 366L368 139H504V366ZM127 0H93L441 667H476L127 0Z"  />
<glyph unicode="&#xBD;" horiz-adv-x="650" d="M101 267V627L39 559L20 579L104 667H131V267H101ZM384 0V24Q431 77 467 117T527 189T564 248T577 302Q577 342 553 361T498 380Q467 380 444 366T407 327L385 344Q403 373 432 389T499 406Q519 406 538 400T573 381T597 349T607 302Q607 273 595 245T559 184T501 113T424 26H608V0H384ZM127 0H93L441 667H476L127 0Z"  />
<glyph unicode="&#xBE;" horiz-adv-x="696" d="M614 113V0H585V113H420V140L576 400H614V139H664V113H614ZM585 366L449 139H585V366ZM208 0H174L522 667H557L208 0ZM270 374Q270 325 241 293T154 260Q111 260 82 280T38 327L60 343Q74 318 97 302T153 286Q195 286 217 309T240 375Q240 399 232 415T211 442T182 456T148 461Q138 461 130 461T118 460V487Q122 486 129 486T147 486Q182 486 208 505T235 566Q235 607 212 627T153 647Q122 647 102 634T64 595L42 612Q59 639 88 656T154 673Q199 673 231 647T264 568Q264 547 257 531T240 504T216 485T190 474Q202 472 216 465T242 446T262 415T270 374Z"  />
<glyph unicode="&#xBF;" horiz-adv-x="324" d="M198 312Q218 294 226 275T234 234Q234 201 222 177T192 132T152 94T113 54T82 8T70 -52Q70 -74 78 -94T101 -131T140 -158T192 -168Q241 -168 271 -151T327 -101L348 -124Q322 -159 283 -178T192 -198Q157 -198 129 -186T80 -154T48 -108T37 -52Q37 -15 49 13T80 63T120 105T160 143T190 184T203 234Q203 248 196 264T175 290L198 312ZM196 492Q210 492 219 483T229 459Q229 446 220 437T196 427Q182 427 173 436T163 459Q163 473 172 482T196 492Z"  />
<glyph unicode="&#xC0;" horiz-adv-x="474" d="M423 0L370 179H105L52 0H17L218 667H256L458 0H423ZM237 625L113 209H361L237 625ZM251 723L116 867H159L278 723H251Z"  />
<glyph unicode="&#xC1;" horiz-adv-x="474" d="M423 0L370 179H105L52 0H17L218 667H256L458 0H423ZM237 625L113 209H361L237 625ZM224 723H197L316 867H359L224 723Z"  />
<glyph unicode="&#xC2;" horiz-adv-x="474" d="M316 723L237 841L162 723H136L219 867H255L341 723H316ZM423 0L370 179H105L52 0H17L218 667H256L458 0H423ZM237 625L113 209H361L237 625Z"  />
<glyph unicode="&#xC3;" horiz-adv-x="474" d="M423 0L370 179H105L52 0H17L218 667H256L458 0H423ZM237 625L113 209H361L237 625ZM288 721Q263 721 251 738T229 777T212 816T185 834Q164 834 150 809T136 727H112Q112 754 116 778T130 821T154 850T188 861Q213 861 225 844T247 805T264 766T291 748Q312 748 325 773T339 855H363Q363 828 359 804T345 762T322 732T288 721Z"  />
<glyph unicode="&#xC4;" horiz-adv-x="474" d="M347 765Q347 754 339 746T319 737Q308 737 300 745T291 765Q291 776 299 784T319 793Q330 793 338 785T347 765ZM185 765Q185 754 177 746T157 737Q146 737 138 745T129 765Q129 776 137 784T157 793Q168 793 176 785T185 765ZM423 0L370 179H105L52 0H17L218 667H256L458 0H423ZM237 625L113 209H361L237 625Z"  />
<glyph unicode="&#xC5;" horiz-adv-x="474" d="M423 0L370 179H105L52 0H17L218 667H256L458 0H423ZM237 625L113 209H361L237 625ZM239 692Q221 692 206 699T179 717T160 744T153 778Q153 796 160 811T178 838T205 856T239 863Q274 863 298 838T323 778Q323 743 299 718T239 692ZM239 716Q265 716 282 734T300 778Q300 804 283 821T239 839Q213 839 195 822T177 778Q177 752 195 734T239 716Z"  />
<glyph unicode="&#xC6;" horiz-adv-x="720" d="M352 0V179H141L57 0H22L340 667H661V637H384V358H654V328H384V30H661V0H352ZM352 625L154 209H352V625Z"  />
<glyph unicode="&#xC7;" horiz-adv-x="512" d="M293 -183Q267 -183 246 -175T211 -155L225 -129Q242 -144 258 -150T293 -156Q317 -156 335 -143T353 -107Q353 -88 344 -77T315 -66Q292 -66 278 -83L256 -70L277 -11Q227 -6 187 22T118 95T74 201T59 333Q59 407 76 470T124 580T199 652T298 678Q358 678 400 649T471 574L443 557Q419 599 383 623T298 648Q252 648 215 625T150 559T109 459T94 333Q94 265 108 208T150 108T214 42T298 18Q349 18 385 46T445 119L473 103Q444 52 404 22T307 -11L291 -55Q298 -49 306 -47T324 -44Q349 -44 365 -61T382 -107Q382 -140 357 -161T293 -183Z"  />
<glyph unicode="&#xC8;" horiz-adv-x="444" d="M80 0V667H389V637H112V358H382V328H112V30H389V0H80ZM248 723L113 867H156L275 723H248Z"  />
<glyph unicode="&#xC9;" horiz-adv-x="444" d="M221 723H194L313 867H356L221 723ZM80 0V667H389V637H112V358H382V328H112V30H389V0H80Z"  />
<glyph unicode="&#xCA;" horiz-adv-x="444" d="M313 723L234 841L159 723H133L216 867H252L338 723H313ZM80 0V667H389V637H112V358H382V328H112V30H389V0H80Z"  />
<glyph unicode="&#xCB;" horiz-adv-x="444" d="M343 765Q343 754 335 746T315 737Q304 737 296 745T287 765Q287 776 295 784T315 793Q326 793 334 785T343 765ZM181 765Q181 754 173 746T153 737Q142 737 134 745T125 765Q125 776 133 784T153 793Q164 793 172 785T181 765ZM80 0V667H389V637H112V358H382V328H112V30H389V0H80Z"  />
<glyph unicode="&#xCC;" horiz-adv-x="192" d="M80 0V667H112V0H80ZM111 723L-24 867H19L138 723H111Z"  />
<glyph unicode="&#xCD;" horiz-adv-x="192" d="M80 0V667H112V0H80ZM83 723H56L175 867H218L83 723Z"  />
<glyph unicode="&#xCE;" horiz-adv-x="192" d="M177 723L98 841L23 723H-3L80 867H116L202 723H177ZM80 0V667H112V0H80Z"  />
<glyph unicode="&#xCF;" horiz-adv-x="192" d="M208 765Q208 754 200 746T180 737Q169 737 161 745T152 765Q152 776 160 784T180 793Q191 793 199 785T208 765ZM46 765Q46 754 38 746T18 737Q7 737 -1 745T-10 765Q-10 776 -2 784T18 793Q29 793 37 785T46 765ZM80 0V667H112V0H80Z"  />
<glyph unicode="&#xD0;" horiz-adv-x="559" d="M104 0V318H19V348H104V667H250Q311 667 358 641T436 570T484 464T500 333Q500 262 484 202T437 96T358 26T250 0H104ZM250 30Q304 30 344 53T411 118T451 214T465 333Q465 396 452 451T412 547T345 613T250 637H136V348H276V318H136V30H250Z"  />
<glyph unicode="&#xD1;" horiz-adv-x="543" d="M319 721Q294 721 282 738T260 777T243 816T216 834Q195 834 181 809T167 727H143Q143 754 147 778T161 821T185 850T219 861Q244 861 256 844T278 805T295 766T322 748Q343 748 356 773T370 855H394Q394 828 390 804T376 762T353 732T319 721ZM431 0L112 595V0H80V667H112L431 78V667H463V0H431Z"  />
<glyph unicode="&#xD2;" horiz-adv-x="580" d="M304 723L169 867H212L331 723H304ZM290 -12Q233 -12 190 15T118 90T74 199T59 333Q59 404 73 466T117 576T190 650T290 678Q347 678 390 651T462 576T506 467T521 333Q521 262 507 200T463 90T390 16T290 -12ZM290 18Q338 18 374 43T435 110T473 210T486 333Q486 399 473 456T436 556T375 623T290 648Q242 648 206 624T145 556T107 456T94 333Q94 268 107 211T144 111T205 43T290 18Z"  />
<glyph unicode="&#xD3;" horiz-adv-x="580" d="M277 723H250L369 867H412L277 723ZM290 -12Q233 -12 190 15T118 90T74 199T59 333Q59 404 73 466T117 576T190 650T290 678Q347 678 390 651T462 576T506 467T521 333Q521 262 507 200T463 90T390 16T290 -12ZM290 18Q338 18 374 43T435 110T473 210T486 333Q486 399 473 456T436 556T375 623T290 648Q242 648 206 624T145 556T107 456T94 333Q94 268 107 211T144 111T205 43T290 18Z"  />
<glyph unicode="&#xD4;" horiz-adv-x="580" d="M369 723L290 841L215 723H189L272 867H308L394 723H369ZM290 -12Q233 -12 190 15T118 90T74 199T59 333Q59 404 73 466T117 576T190 650T290 678Q347 678 390 651T462 576T506 467T521 333Q521 262 507 200T463 90T390 16T290 -12ZM290 18Q338 18 374 43T435 110T473 210T486 333Q486 399 473 456T436 556T375 623T290 648Q242 648 206 624T145 556T107 456T94 333Q94 268 107 211T144 111T205 43T290 18Z"  />
<glyph unicode="&#xD5;" horiz-adv-x="580" d="M290 -12Q233 -12 190 15T118 90T74 199T59 333Q59 404 73 466T117 576T190 650T290 678Q347 678 390 651T462 576T506 467T521 333Q521 262 507 200T463 90T390 16T290 -12ZM290 18Q338 18 374 43T435 110T473 210T486 333Q486 399 473 456T436 556T375 623T290 648Q242 648 206 624T145 556T107 456T94 333Q94 268 107 211T144 111T205 43T290 18ZM341 721Q316 721 304 738T282 777T265 816T238 834Q217 834 203 809T189 727H165Q165 754 169 778T183 821T207 850T241 861Q266 861 278 844T300 805T317 766T344 748Q365 748 378 773T392 855H416Q416 828 412 804T398 762T375 732T341 721Z"  />
<glyph unicode="&#xD6;" horiz-adv-x="580" d="M398 765Q398 754 390 746T370 737Q359 737 351 745T342 765Q342 776 350 784T370 793Q381 793 389 785T398 765ZM236 765Q236 754 228 746T208 737Q197 737 189 745T180 765Q180 776 188 784T208 793Q219 793 227 785T236 765ZM290 -12Q233 -12 190 15T118 90T74 199T59 333Q59 404 73 466T117 576T190 650T290 678Q347 678 390 651T462 576T506 467T521 333Q521 262 507 200T463 90T390 16T290 -12ZM290 18Q338 18 374 43T435 110T473 210T486 333Q486 399 473 456T436 556T375 623T290 648Q242 648 206 624T145 556T107 456T94 333Q94 268 107 211T144 111T205 43T290 18Z"  />
<glyph unicode="&#xD7;" horiz-adv-x="434" d="M217 313L84 179L62 201L196 334L62 468L84 489L217 355L351 489L372 468L238 334L372 201L351 179L217 313Z"  />
<glyph unicode="&#xD8;" horiz-adv-x="580" d="M290 -12Q216 -12 164 34L148 0H114L141 57Q99 105 79 176T59 333Q59 404 73 466T117 576T190 650T290 678Q327 678 358 666T415 632L432 667H467L439 608Q480 560 500 489T521 333Q521 262 507 200T463 90T390 16T290 -12ZM290 18Q338 18 374 43T435 110T473 210T486 333Q486 407 470 469T423 575L179 65Q224 18 290 18ZM94 333Q94 260 109 198T157 91L401 601Q354 648 290 648Q242 648 206 624T145 556T107 456T94 333Z"  />
<glyph unicode="&#xD9;" horiz-adv-x="534" d="M267 -12Q176 -12 128 43T80 204V667H112V204Q112 110 152 64T267 18Q341 18 381 64T422 204V667H454V204Q454 98 406 43T267 -12ZM281 723L146 867H189L308 723H281Z"  />
<glyph unicode="&#xDA;" horiz-adv-x="534" d="M254 723H227L346 867H389L254 723ZM267 -12Q176 -12 128 43T80 204V667H112V204Q112 110 152 64T267 18Q341 18 381 64T422 204V667H454V204Q454 98 406 43T267 -12Z"  />
<glyph unicode="&#xDB;" horiz-adv-x="534" d="M346 723L267 841L192 723H166L249 867H285L371 723H346ZM267 -12Q176 -12 128 43T80 204V667H112V204Q112 110 152 64T267 18Q341 18 381 64T422 204V667H454V204Q454 98 406 43T267 -12Z"  />
<glyph unicode="&#xDC;" horiz-adv-x="534" d="M376 765Q376 754 368 746T348 737Q337 737 329 745T320 765Q320 776 328 784T348 793Q359 793 367 785T376 765ZM214 765Q214 754 206 746T186 737Q175 737 167 745T158 765Q158 776 166 784T186 793Q197 793 205 785T214 765ZM267 -12Q176 -12 128 43T80 204V667H112V204Q112 110 152 64T267 18Q341 18 381 64T422 204V667H454V204Q454 98 406 43T267 -12Z"  />
<glyph unicode="&#xDD;" horiz-adv-x="466" d="M217 0V289L12 667H50L233 325L417 667H455L249 289V0H217ZM220 723H193L312 867H355L220 723Z"  />
<glyph unicode="&#xDE;" horiz-adv-x="448" d="M80 0V667H112V538H246Q287 538 318 523T369 481T400 421T411 348Q411 310 401 276T369 216T317 175T246 160H112V0H80ZM245 190Q308 190 342 234T376 348Q376 417 342 462T245 508H112V190H245Z"  />
<glyph unicode="&#xDF;" horiz-adv-x="477" d="M458 116Q458 91 449 68T423 27T379 -1T317 -12Q262 -12 231 7T174 56L197 79Q214 56 243 36T317 15Q368 15 398 44T428 116Q428 151 410 173T365 210T307 239T249 269T204 311T186 376Q186 401 196 419T221 452T253 479T285 505T310 533T320 569Q320 587 312 602T289 627T257 644T219 650Q175 650 144 620T112 532V0H82V532Q82 563 92 590T120 636T163 666T219 677Q247 677 270 669T311 647T339 613T349 569Q349 543 339 525T315 493T283 466T251 441T226 413T216 375Q216 342 234 322T279 287T337 260T395 229T440 185T458 116Z"  />
<glyph unicode="&#xE0;" horiz-adv-x="428" d="M323 0V56Q297 19 265 4T195 -12Q165 -12 139 -1T94 32T63 82T52 149Q52 186 63 215T93 266T139 298T195 310Q232 310 264 295T323 243V348Q323 407 295 437T216 468Q180 468 151 454T92 403L72 425Q104 461 137 478T216 495Q282 495 317 459T353 349V0H323ZM199 15Q236 15 269 32T323 89V209Q302 248 269 265T199 283Q172 283 151 272T115 243T93 201T85 149Q85 122 92 98T114 55T150 26T199 15ZM230 556L95 700H138L257 556H230Z"  />
<glyph unicode="&#xE1;" horiz-adv-x="428" d="M323 0V56Q297 19 265 4T195 -12Q165 -12 139 -1T94 32T63 82T52 149Q52 186 63 215T93 266T139 298T195 310Q232 310 264 295T323 243V348Q323 407 295 437T216 468Q180 468 151 454T92 403L72 425Q104 461 137 478T216 495Q282 495 317 459T353 349V0H323ZM199 15Q236 15 269 32T323 89V209Q302 248 269 265T199 283Q172 283 151 272T115 243T93 201T85 149Q85 122 92 98T114 55T150 26T199 15ZM203 556H176L295 700H338L203 556Z"  />
<glyph unicode="&#xE2;" horiz-adv-x="428" d="M323 0V56Q297 19 265 4T195 -12Q165 -12 139 -1T94 32T63 82T52 149Q52 186 63 215T93 266T139 298T195 310Q232 310 264 295T323 243V348Q323 407 295 437T216 468Q180 468 151 454T92 403L72 425Q104 461 137 478T216 495Q282 495 317 459T353 349V0H323ZM199 15Q236 15 269 32T323 89V209Q302 248 269 265T199 283Q172 283 151 272T115 243T93 201T85 149Q85 122 92 98T114 55T150 26T199 15ZM296 556L217 674L142 556H116L199 700H235L321 556H296Z"  />
<glyph unicode="&#xE3;" horiz-adv-x="428" d="M323 0V56Q297 19 265 4T195 -12Q165 -12 139 -1T94 32T63 82T52 149Q52 186 63 215T93 266T139 298T195 310Q232 310 264 295T323 243V348Q323 407 295 437T216 468Q180 468 151 454T92 403L72 425Q104 461 137 478T216 495Q282 495 317 459T353 349V0H323ZM199 15Q236 15 269 32T323 89V209Q302 248 269 265T199 283Q172 283 151 272T115 243T93 201T85 149Q85 122 92 98T114 55T150 26T199 15ZM268 554Q243 554 231 571T209 610T192 649T165 667Q144 667 130 642T116 560H92Q92 587 96 611T110 654T134 683T168 694Q193 694 205 677T227 638T244 599T271 581Q292 581 305 606T319 688H343Q343 661 339 637T325 595T302 565T268 554Z"  />
<glyph unicode="&#xE4;" horiz-adv-x="428" d="M323 0V56Q297 19 265 4T195 -12Q165 -12 139 -1T94 32T63 82T52 149Q52 186 63 215T93 266T139 298T195 310Q232 310 264 295T323 243V348Q323 407 295 437T216 468Q180 468 151 454T92 403L72 425Q104 461 137 478T216 495Q282 495 317 459T353 349V0H323ZM199 15Q236 15 269 32T323 89V209Q302 248 269 265T199 283Q172 283 151 272T115 243T93 201T85 149Q85 122 92 98T114 55T150 26T199 15ZM324 598Q324 587 316 579T296 570Q285 570 277 578T268 598Q268 609 276 617T296 626Q307 626 315 618T324 598ZM162 598Q162 587 154 579T134 570Q123 570 115 578T106 598Q106 609 114 617T134 626Q145 626 153 618T162 598Z"  />
<glyph unicode="&#xE5;" horiz-adv-x="428" d="M323 0V56Q297 19 265 4T195 -12Q165 -12 139 -1T94 32T63 82T52 149Q52 186 63 215T93 266T139 298T195 310Q232 310 264 295T323 243V348Q323 407 295 437T216 468Q180 468 151 454T92 403L72 425Q104 461 137 478T216 495Q282 495 317 459T353 349V0H323ZM199 15Q236 15 269 32T323 89V209Q302 248 269 265T199 283Q172 283 151 272T115 243T93 201T85 149Q85 122 92 98T114 55T150 26T199 15ZM217 553Q199 553 184 560T157 578T138 605T131 639Q131 657 138 672T156 699T183 717T217 724Q252 724 276 699T301 639Q301 604 277 579T217 553ZM217 577Q243 577 260 595T278 639Q278 665 261 682T217 700Q191 700 173 683T155 639Q155 613 173 595T217 577Z"  />
<glyph unicode="&#xE6;" horiz-adv-x="724" d="M369 232Q370 185 380 146T409 77T455 32T518 15Q588 15 634 86L657 69Q631 32 598 10T517 -12Q456 -12 417 23T358 114Q341 58 303 23T208 -12Q138 -12 95 31T52 149Q52 186 63 215T95 266T143 298T203 310Q242 310 277 295T339 244V348Q339 407 310 437T225 468Q187 468 155 454T92 403L72 425Q104 461 141 478T227 495Q252 495 275 489T317 470T348 436T364 384Q381 429 417 462T503 495Q548 495 580 475T633 419T664 338T674 242V232H369ZM641 259Q641 294 634 331T611 398T569 448T505 468Q469 468 444 448T403 397T378 329T369 259H641ZM339 208Q316 248 282 265T207 283Q150 283 118 246T85 149Q85 89 117 52T207 15Q238 15 262 27T304 63T330 117T339 186V208Z"  />
<glyph unicode="&#xE7;" horiz-adv-x="394" d="M235 -185Q209 -185 188 -177T153 -157L167 -131Q184 -146 200 -152T235 -158Q259 -158 277 -145T295 -109Q295 -90 286 -79T257 -68Q234 -68 220 -85L198 -72L220 -11Q180 -7 149 14T97 69T65 147T54 242Q54 294 66 340T101 420T158 475T236 495Q281 495 308 478T360 432L339 413Q316 443 291 455T236 468Q198 468 170 450T124 400T96 328T87 242Q87 198 96 157T123 85T170 34T236 15Q266 15 291 27T339 71L360 51Q337 22 313 7T250 -11L233 -57Q240 -51 248 -49T266 -46Q291 -46 307 -63T324 -109Q324 -142 299 -163T235 -185Z"  />
<glyph unicode="&#xE8;" horiz-adv-x="459" d="M245 -12Q199 -12 164 7T104 61T67 141T54 242Q54 294 66 340T101 421T157 475T232 495Q278 495 311 475T366 419T398 338T408 242V232H87Q88 185 99 146T130 77T179 32T245 15Q318 15 369 86L392 69Q364 32 329 10T245 -12ZM376 259Q376 294 368 331T343 398T298 448T231 468Q193 468 167 448T123 397T97 329T87 259H376ZM245 556L110 700H153L272 556H245Z"  />
<glyph unicode="&#xE9;" horiz-adv-x="459" d="M218 556H191L310 700H353L218 556ZM245 -12Q199 -12 164 7T104 61T67 141T54 242Q54 294 66 340T101 421T157 475T232 495Q278 495 311 475T366 419T398 338T408 242V232H87Q88 185 99 146T130 77T179 32T245 15Q318 15 369 86L392 69Q364 32 329 10T245 -12ZM376 259Q376 294 368 331T343 398T298 448T231 468Q193 468 167 448T123 397T97 329T87 259H376Z"  />
<glyph unicode="&#xEA;" horiz-adv-x="459" d="M311 556L232 674L157 556H131L214 700H250L336 556H311ZM245 -12Q199 -12 164 7T104 61T67 141T54 242Q54 294 66 340T101 421T157 475T232 495Q278 495 311 475T366 419T398 338T408 242V232H87Q88 185 99 146T130 77T179 32T245 15Q318 15 369 86L392 69Q364 32 329 10T245 -12ZM376 259Q376 294 368 331T343 398T298 448T231 468Q193 468 167 448T123 397T97 329T87 259H376Z"  />
<glyph unicode="&#xEB;" horiz-adv-x="459" d="M341 598Q341 587 333 579T313 570Q302 570 294 578T285 598Q285 609 293 617T313 626Q324 626 332 618T341 598ZM179 598Q179 587 171 579T151 570Q140 570 132 578T123 598Q123 609 131 617T151 626Q162 626 170 618T179 598ZM245 -12Q199 -12 164 7T104 61T67 141T54 242Q54 294 66 340T101 421T157 475T232 495Q278 495 311 475T366 419T398 338T408 242V232H87Q88 185 99 146T130 77T179 32T245 15Q318 15 369 86L392 69Q364 32 329 10T245 -12ZM376 259Q376 294 368 331T343 398T298 448T231 468Q193 468 167 448T123 397T97 329T87 259H376Z"  />
<glyph unicode="&#xEC;" horiz-adv-x="181" d="M76 0V483H106V0H76ZM106 556L-29 700H14L133 556H106Z"  />
<glyph unicode="&#xED;" horiz-adv-x="181" d="M77 556H50L169 700H212L77 556ZM76 0V483H106V0H76Z"  />
<glyph unicode="&#xEE;" horiz-adv-x="181" d="M170 556L91 674L16 556H-10L73 700H109L195 556H170ZM76 0V483H106V0H76Z"  />
<glyph unicode="&#xEF;" horiz-adv-x="181" d="M201 598Q201 587 193 579T173 570Q162 570 154 578T145 598Q145 609 153 617T173 626Q184 626 192 618T201 598ZM39 598Q39 587 31 579T11 570Q0 570 -8 578T-17 598Q-17 609 -9 617T11 626Q22 626 30 618T39 598ZM76 0V483H106V0H76Z"  />
<glyph unicode="&#xF0;" horiz-adv-x="461" d="M109 550L224 601Q209 617 194 632T161 662L185 683Q202 666 218 649T251 613L346 655L357 630L269 591Q299 554 324 514T368 430T397 339T408 242Q408 191 397 145T364 64T308 9T231 -12Q187 -12 154 8T99 63T65 144T54 242Q54 293 65 339T98 419T154 474T231 495Q265 495 293 480T346 425Q305 508 244 579L121 524L109 550ZM231 15Q269 15 296 34T340 86T366 159T375 242Q375 284 367 324T341 397T296 448T231 468Q193 468 166 449T122 397T96 325T87 242Q87 200 95 159T121 86T166 35T231 15Z"  />
<glyph unicode="&#xF1;" horiz-adv-x="435" d="M330 0V366Q330 423 306 445T241 468Q199 468 163 440T106 376V0H76V483H106V409Q128 443 165 469T245 495Q302 495 331 465T360 366V0H330ZM270 554Q245 554 233 571T211 610T194 649T167 667Q146 667 132 642T118 560H94Q94 587 98 611T112 654T136 683T170 694Q195 694 207 677T229 638T246 599T273 581Q294 581 307 606T321 688H345Q345 661 341 637T327 595T304 565T270 554Z"  />
<glyph unicode="&#xF2;" horiz-adv-x="461" d="M231 -12Q187 -12 154 8T99 63T65 144T54 242Q54 293 65 339T98 419T154 474T231 495Q275 495 308 475T363 420T397 339T408 242Q408 191 397 145T364 64T308 9T231 -12ZM231 15Q269 15 296 34T340 86T366 159T375 242Q375 284 367 324T341 397T296 448T231 468Q193 468 166 449T122 397T96 325T87 242Q87 200 95 159T121 86T166 35T231 15ZM245 556L110 700H153L272 556H245Z"  />
<glyph unicode="&#xF3;" horiz-adv-x="461" d="M217 556H190L309 700H352L217 556ZM231 -12Q187 -12 154 8T99 63T65 144T54 242Q54 293 65 339T98 419T154 474T231 495Q275 495 308 475T363 420T397 339T408 242Q408 191 397 145T364 64T308 9T231 -12ZM231 15Q269 15 296 34T340 86T366 159T375 242Q375 284 367 324T341 397T296 448T231 468Q193 468 166 449T122 397T96 325T87 242Q87 200 95 159T121 86T166 35T231 15Z"  />
<glyph unicode="&#xF4;" horiz-adv-x="461" d="M309 556L230 674L155 556H129L212 700H248L334 556H309ZM231 -12Q187 -12 154 8T99 63T65 144T54 242Q54 293 65 339T98 419T154 474T231 495Q275 495 308 475T363 420T397 339T408 242Q408 191 397 145T364 64T308 9T231 -12ZM231 15Q269 15 296 34T340 86T366 159T375 242Q375 284 367 324T341 397T296 448T231 468Q193 468 166 449T122 397T96 325T87 242Q87 200 95 159T121 86T166 35T231 15Z"  />
<glyph unicode="&#xF5;" horiz-adv-x="461" d="M231 -12Q187 -12 154 8T99 63T65 144T54 242Q54 293 65 339T98 419T154 474T231 495Q275 495 308 475T363 420T397 339T408 242Q408 191 397 145T364 64T308 9T231 -12ZM231 15Q269 15 296 34T340 86T366 159T375 242Q375 284 367 324T341 397T296 448T231 468Q193 468 166 449T122 397T96 325T87 242Q87 200 95 159T121 86T166 35T231 15ZM282 554Q257 554 245 571T223 610T206 649T179 667Q158 667 144 642T130 560H106Q106 587 110 611T124 654T148 683T182 694Q207 694 219 677T241 638T258 599T285 581Q306 581 319 606T333 688H357Q357 661 353 637T339 595T316 565T282 554Z"  />
<glyph unicode="&#xF6;" horiz-adv-x="461" d="M340 598Q340 587 332 579T312 570Q301 570 293 578T284 598Q284 609 292 617T312 626Q323 626 331 618T340 598ZM178 598Q178 587 170 579T150 570Q139 570 131 578T122 598Q122 609 130 617T150 626Q161 626 169 618T178 598ZM231 -12Q187 -12 154 8T99 63T65 144T54 242Q54 293 65 339T98 419T154 474T231 495Q275 495 308 475T363 420T397 339T408 242Q408 191 397 145T364 64T308 9T231 -12ZM231 15Q269 15 296 34T340 86T366 159T375 242Q375 284 367 324T341 397T296 448T231 468Q193 468 166 449T122 397T96 325T87 242Q87 200 95 159T121 86T166 35T231 15Z"  />
<glyph unicode="&#xF7;" horiz-adv-x="443" d="M256 506Q256 492 247 482T223 472Q209 472 200 482T190 506Q190 520 199 529T223 538Q237 538 246 529T256 506ZM29 322V352H414V322H29ZM256 163Q256 149 247 140T223 130Q209 130 200 139T190 163Q190 177 199 186T223 196Q237 196 246 187T256 163Z"  />
<glyph unicode="&#xF8;" horiz-adv-x="461" d="M71 0L104 56Q79 91 67 139T54 242Q54 293 65 339T98 419T154 474T231 495Q263 495 289 484T336 453L354 483H385L355 431Q381 396 394 347T408 242Q408 191 397 145T364 64T308 9T231 -12Q197 -12 170 0T122 34L102 0H71ZM231 15Q269 15 296 34T340 86T366 159T375 242Q375 286 366 328T338 402L138 61Q155 40 178 28T231 15ZM87 242Q87 199 95 159T121 86L321 426Q304 446 282 457T231 468Q193 468 166 449T122 397T96 325T87 242Z"  />
<glyph unicode="&#xF9;" horiz-adv-x="435" d="M330 0V72Q306 37 270 13T191 -12Q134 -12 105 17T76 117V483H106V117Q106 60 129 38T195 15Q236 15 273 42T330 105V483H360V0H330ZM231 556L96 700H139L258 556H231Z"  />
<glyph unicode="&#xFA;" horiz-adv-x="435" d="M204 556H177L296 700H339L204 556ZM330 0V72Q306 37 270 13T191 -12Q134 -12 105 17T76 117V483H106V117Q106 60 129 38T195 15Q236 15 273 42T330 105V483H360V0H330Z"  />
<glyph unicode="&#xFB;" horiz-adv-x="435" d="M296 556L217 674L142 556H116L199 700H235L321 556H296ZM330 0V72Q306 37 270 13T191 -12Q134 -12 105 17T76 117V483H106V117Q106 60 129 38T195 15Q236 15 273 42T330 105V483H360V0H330Z"  />
<glyph unicode="&#xFC;" horiz-adv-x="435" d="M330 598Q330 587 322 579T302 570Q291 570 283 578T274 598Q274 609 282 617T302 626Q313 626 321 618T330 598ZM168 598Q168 587 160 579T140 570Q129 570 121 578T112 598Q112 609 120 617T140 626Q151 626 159 618T168 598ZM330 0V72Q306 37 270 13T191 -12Q134 -12 105 17T76 117V483H106V117Q106 60 129 38T195 15Q236 15 273 42T330 105V483H360V0H330Z"  />
<glyph unicode="&#xFD;" horiz-adv-x="375" d="M45 -162Q52 -166 62 -167T78 -169Q100 -169 113 -157T138 -109L172 -11L14 483H48L188 38L328 483H362L165 -119Q139 -196 78 -196Q55 -196 39 -189L45 -162ZM174 556H147L266 700H309L174 556Z"  />
<glyph unicode="&#xFE;" horiz-adv-x="457" d="M237 -12Q197 -12 163 10T106 75V-184H76V667H106V410Q126 448 160 471T237 495Q278 495 309 477T362 424T394 344T405 242Q405 187 394 141T362 60T310 7T237 -12ZM237 15Q272 15 297 33T339 83T364 155T372 242Q372 288 364 329T340 401T298 450T237 468Q216 468 196 460T158 439T128 407T106 370V115Q114 96 127 78T158 46T195 24T237 15Z"  />
<glyph unicode="&#xFF;" horiz-adv-x="375" d="M45 -162Q52 -166 62 -167T78 -169Q100 -169 113 -157T138 -109L172 -11L14 483H48L188 38L328 483H362L165 -119Q139 -196 78 -196Q55 -196 39 -189L45 -162ZM297 598Q297 587 289 579T269 570Q258 570 250 578T241 598Q241 609 249 617T269 626Q280 626 288 618T297 598ZM135 598Q135 587 127 579T107 570Q96 570 88 578T79 598Q79 609 87 617T107 626Q118 626 126 618T135 598Z"  />
<glyph unicode="&#x110;" horiz-adv-x="559" d="M104 0V318H19V348H104V667H250Q311 667 358 641T436 570T484 464T500 333Q500 262 484 202T437 96T358 26T250 0H104ZM250 30Q304 30 344 53T411 118T451 214T465 333Q465 396 452 451T412 547T345 613T250 637H136V348H276V318H136V30H250Z"  />
<glyph unicode="&#x131;" horiz-adv-x="181" d="M76 0V483H106V0H76Z"  />
<glyph unicode="&#x152;" horiz-adv-x="843" d="M475 0V119Q444 48 393 18T290 -12Q233 -12 190 15T118 90T74 199T59 333Q59 404 73 466T117 576T190 650T290 677Q316 677 342 670T393 648T438 609T475 549V667H784V637H507V358H777V328H507V30H784V0H475ZM475 475Q452 560 404 603T290 647Q242 647 206 623T144 556T107 456T94 333Q94 268 106 211T144 110T205 43T290 18Q355 18 403 63T475 193V475Z"  />
<glyph unicode="&#x153;" horiz-adv-x="780" d="M408 232Q409 185 420 146T451 77T500 32T566 15Q639 15 690 86L713 69Q685 32 650 10T566 -12Q526 -12 497 1T446 35T412 82T392 135Q386 109 374 83T343 36T296 2T231 -12Q187 -12 154 8T99 63T65 144T54 242Q54 293 65 339T98 419T154 474T231 495Q268 495 295 482T342 448T374 402T392 351Q398 377 411 402T444 448T491 482T553 495Q599 495 632 475T687 419T719 338T729 242V232H408ZM697 259Q697 294 689 331T664 398T619 448T552 468Q514 468 488 448T444 397T418 329T408 259H697ZM375 242Q375 284 367 324T341 397T296 448T231 468Q193 468 166 449T122 397T96 325T87 242Q87 200 95 159T121 86T166 34T231 14Q269 14 296 34T340 86T366 159T375 242Z"  />
<glyph unicode="&#x160;" horiz-adv-x="447" d="M208 723L122 867H148L226 749L302 867H327L244 723H208ZM216 -12Q159 -12 114 10T40 70L65 94Q88 63 127 41T216 18Q255 18 283 30T329 61T355 106T364 158Q364 208 342 240T285 295T212 337T139 379T83 436T60 520Q60 557 73 586T110 636T164 667T227 678Q278 678 317 661T383 611L361 587Q335 619 302 633T227 648Q200 648 176 639T133 613T104 573T93 520Q93 477 115 449T172 400T245 359T318 313T374 251T397 158Q397 127 387 97T355 42T299 3T216 -12Z"  />
<glyph unicode="&#x161;" horiz-adv-x="366" d="M167 556L81 700H107L185 582L261 700H286L203 556H167ZM179 -12Q134 -12 100 3T36 56L59 78Q79 50 108 33T179 15Q228 15 259 43T290 116Q290 151 272 173T227 211T169 240T111 271T66 314T48 379Q48 429 85 462T183 495Q228 495 260 478T312 433L291 413Q273 441 246 454T183 468Q134 468 106 443T78 379Q78 346 96 326T141 290T199 262T257 230T302 185T320 116Q320 61 283 25T179 -12Z"  />
<glyph unicode="&#x178;" horiz-adv-x="466" d="M346 765Q346 754 338 746T318 737Q307 737 299 745T290 765Q290 776 298 784T318 793Q329 793 337 785T346 765ZM184 765Q184 754 176 746T156 737Q145 737 137 745T128 765Q128 776 136 784T156 793Q167 793 175 785T184 765ZM217 0V289L12 667H50L233 325L417 667H455L249 289V0H217Z"  />
<glyph unicode="&#x17D;" horiz-adv-x="444" d="M206 723L120 867H146L224 749L300 867H325L242 723H206ZM45 0V31L357 637H45V667H392V637L79 30H399V0H45Z"  />
<glyph unicode="&#x17E;" horiz-adv-x="371" d="M164 556L78 700H104L182 582L258 700H283L200 556H164ZM51 0V27L283 456H51V483H316V456L84 27H320V0H51Z"  />
<glyph unicode="&#x192;" horiz-adv-x="374" d="M35 -161L130 267H65V297H136L195 562Q207 616 240 646T321 677Q340 677 355 671T384 649L360 627Q346 647 319 647Q284 647 260 624T227 561L169 297H300V267H162L67 -161H35Z"  />
<glyph unicode="&#x2C6;" horiz-adv-x="205" d="M180 556L101 674L26 556H0L83 700H119L205 556H180Z"  />
<glyph unicode="&#x2C7;" horiz-adv-x="205" d="M86 556L0 700H26L104 582L180 700H205L122 556H86Z"  />
<glyph unicode="&#x2DA;" horiz-adv-x="170" d="M86 553Q68 553 53 560T26 578T7 605T0 639Q0 657 7 672T25 699T52 717T86 724Q121 724 145 699T170 639Q170 604 146 579T86 553ZM86 577Q112 577 129 595T147 639Q147 665 130 682T86 700Q60 700 42 683T24 639Q24 613 42 595T86 577Z"  />
<glyph unicode="&#x2DC;" horiz-adv-x="251" d="M176 554Q151 554 139 571T117 610T100 649T73 667Q52 667 38 642T24 560H0Q0 587 4 611T18 654T42 683T76 694Q101 694 113 677T135 638T152 599T179 581Q200 581 213 606T227 688H251Q251 661 247 637T233 595T210 565T176 554Z"  />
<glyph unicode="&#x2013;" horiz-adv-x="527" d="M30 227V257H497V227H30Z"  />
<glyph unicode="&#x2014;" horiz-adv-x="737" d="M30 227V257H707V227H30Z"  />
<glyph unicode="&#x2018;" horiz-adv-x="208" d="M62 556Q62 594 81 627T124 677L146 659Q122 641 108 616T93 567H96Q98 567 99 567T101 568Q115 568 124 559T133 535Q133 522 124 513T101 503Q85 503 74 516T62 556Z"  />
<glyph unicode="&#x2019;" horiz-adv-x="208" d="M142 624Q142 586 123 553T80 503L58 521Q82 539 96 564T111 613Q110 612 108 612H103Q89 612 80 621T71 645Q71 658 80 667T103 677Q119 677 130 664T142 624Z"  />
<glyph unicode="&#x201A;" horiz-adv-x="208" d="M142 3Q142 -35 123 -68T80 -118L58 -100Q82 -82 96 -57T111 -8Q110 -9 108 -9H103Q89 -9 80 0T71 24Q71 37 80 46T103 56Q119 56 130 43T142 3Z"  />
<glyph unicode="&#x201C;" horiz-adv-x="331" d="M67 556Q67 594 86 627T129 677L151 659Q127 641 113 616T98 567H101Q102 567 103 567T105 568Q119 568 128 559T137 535Q137 522 128 513T105 503Q89 503 78 516T67 556ZM190 556Q190 594 209 627T252 677L274 659Q250 641 236 616T221 567H224Q225 567 226 567T228 568Q242 568 251 559T260 535Q260 522 251 513T228 503Q212 503 201 516T190 556Z"  />
<glyph unicode="&#x201D;" horiz-adv-x="331" d="M265 624Q265 586 246 553T203 503L181 521Q205 539 219 564T234 613Q233 612 231 612H226Q212 612 203 621T194 645Q194 658 203 667T226 677Q242 677 253 664T265 624ZM142 624Q142 586 123 553T80 503L58 521Q82 539 96 564T111 613Q110 612 108 612H103Q89 612 80 621T71 645Q71 658 80 667T103 677Q119 677 130 664T142 624Z"  />
<glyph unicode="&#x201E;" horiz-adv-x="331" d="M142 3Q142 -35 123 -68T80 -118L58 -100Q82 -82 96 -57T111 -8Q110 -9 108 -9H103Q89 -9 80 0T71 24Q71 37 80 46T103 56Q119 56 130 43T142 3ZM265 3Q265 -35 246 -68T203 -118L181 -100Q205 -82 219 -57T234 -8Q233 -9 231 -9H226Q212 -9 203 0T194 24Q194 37 203 46T226 56Q242 56 253 43T265 3Z"  />
<glyph unicode="&#x2020;" horiz-adv-x="251" d="M137 543L141 327H110L114 543L25 539V566L114 563L110 677H141L137 563L226 566V539L137 543Z"  />
<glyph unicode="&#x2021;" horiz-adv-x="251" d="M226 539L137 543V314L226 318V291L137 294L141 180H110L114 294L25 291V318L114 314V543L25 539V566L114 563L110 677H141L137 563L226 566V539Z"  />
<glyph unicode="&#x2022;" horiz-adv-x="358" d="M278 242Q278 222 271 205T250 174T218 153T180 145Q160 145 142 152T111 173T90 204T82 242Q82 283 110 311T180 340Q221 340 249 312T278 242Z"  />
<glyph unicode="&#x2026;" horiz-adv-x="624" d="M137 24Q137 10 128 1T104 -9Q90 -9 81 0T71 24Q71 37 80 46T104 56Q118 56 127 47T137 24ZM345 24Q345 10 336 1T312 -9Q298 -9 289 0T279 24Q279 37 288 46T312 56Q326 56 335 47T345 24ZM553 24Q553 10 544 1T520 -9Q506 -9 497 0T487 24Q487 37 496 46T520 56Q534 56 543 47T553 24Z"  />
<glyph unicode="&#x2030;" horiz-adv-x="934" d="M302 513Q302 478 293 449T266 397T224 363T169 351Q139 351 115 363T73 397T46 448T36 513Q36 548 45 578T72 630T114 664T169 677Q199 677 223 665T265 630T292 578T302 513ZM161 0H127L475 667H510L161 0ZM596 150Q596 115 587 86T560 34T518 0T463 -12Q433 -12 409 0T367 34T340 85T330 150Q330 185 339 215T366 267T408 301T463 314Q493 314 517 302T559 267T586 215T596 150ZM269 513Q269 541 262 565T242 609T211 639T169 650Q146 650 128 639T96 609T76 566T69 513Q69 486 76 462T96 419T127 389T169 378Q192 378 210 389T242 418T262 461T269 513ZM563 150Q563 178 556 202T536 246T505 276T463 287Q440 287 422 276T390 246T370 203T363 150Q363 123 370 99T390 56T421 26T463 15Q486 15 504 26T536 55T556 98T563 150ZM898 150Q898 115 889 86T862 34T820 0T765 -12Q735 -12 711 0T669 34T642 85T632 150Q632 185 641 215T668 267T710 301T765 314Q795 314 819 302T861 267T888 215T898 150ZM865 150Q865 178 858 202T838 246T807 276T765 287Q742 287 724 276T692 246T672 203T665 150Q665 123 672 99T692 56T723 26T765 15Q788 15 806 26T838 55T858 98T865 150Z"  />
<glyph unicode="&#x2039;" horiz-adv-x="221" d="M155 63L30 243L155 420H191L66 243L191 63H155Z"  />
<glyph unicode="&#x203A;" horiz-adv-x="221" d="M66 63H30L155 243L30 420H66L191 243L66 63Z"  />
<glyph unicode="&#x2044;" horiz-adv-x="111" d="M-102 0H-136L212 667H247L-102 0Z"  />
<glyph unicode="&#x20AC;" horiz-adv-x="525" d="M313 -12Q266 -12 228 7T159 60T109 142T80 247H29V277H77Q74 304 74 333Q74 362 77 391H29V421H80Q89 478 109 525T159 606T227 659T313 678Q373 678 415 649T486 574L458 557Q434 599 398 623T313 648Q275 648 242 632T184 585T141 514T115 421H358V391H112Q109 362 109 333Q109 304 112 277H358V247H115Q123 196 140 154T183 82T241 35T313 18Q364 18 400 46T460 119L488 103Q458 50 416 19T313 -12Z"  />
<glyph unicode="&#x2122;" horiz-adv-x="414" d="M351 447V629L286 447H278L213 629V447H185V667H228L282 509L336 667H379V447H351ZM97 641V447H69V641H17V667H149V641H97Z"  />
<glyph unicode="&#xF656;" horiz-adv-x="191" d="M101 0V360L39 292L20 312L104 400H131V0H101Z"  />
<glyph unicode="&#xF657;" horiz-adv-x="310" d="M44 0V24Q91 77 127 117T187 189T224 248T237 302Q237 342 213 361T158 380Q127 380 104 366T67 327L45 344Q63 373 92 389T159 406Q179 406 198 400T233 381T257 349T267 302Q267 273 255 245T219 184T161 113T84 26H268V0H44Z"  />
<glyph unicode="&#xF658;" horiz-adv-x="310" d="M270 107Q270 58 241 26T154 -7Q111 -7 82 13T38 60L60 76Q74 51 97 35T153 19Q195 19 217 42T240 108Q240 132 232 148T211 175T182 189T148 194Q138 194 130 194T118 193V220Q122 219 129 219T147 219Q182 219 208 238T235 299Q235 340 212 360T153 380Q122 380 102 367T64 328L42 345Q59 372 88 389T154 406Q199 406 231 380T264 301Q264 280 257 264T240 237T216 218T190 207Q202 205 216 198T242 179T262 148T270 107Z"  />
<glyph unicode="&#xF659;" horiz-adv-x="310" d="M228 113V0H199V113H34V140L190 400H228V139H278V113H228ZM199 366L63 139H199V366Z"  />


</font>
</defs>
</svg>
